<?xml version="1.0" encoding="utf-8"?>
<!-- Generator: Adobe Illustrator 23.0.4, SVG Export Plug-In . SVG Version: 6.00 Build 0)  -->
<!DOCTYPE svg PUBLIC "-//W3C//DTD SVG 1.1//EN" "http://www.w3.org/Graphics/SVG/1.1/DTD/svg11.dtd" [
	<!ENTITY ns_extend "http://ns.adobe.com/Extensibility/1.0/">
	<!ENTITY ns_ai "http://ns.adobe.com/AdobeIllustrator/10.0/">
	<!ENTITY ns_graphs "http://ns.adobe.com/Graphs/1.0/">
	<!ENTITY ns_vars "http://ns.adobe.com/Variables/1.0/">
	<!ENTITY ns_imrep "http://ns.adobe.com/ImageReplacement/1.0/">
	<!ENTITY ns_sfw "http://ns.adobe.com/SaveForWeb/1.0/">
	<!ENTITY ns_custom "http://ns.adobe.com/GenericCustomNamespace/1.0/">
	<!ENTITY ns_adobe_xpath "http://ns.adobe.com/XPath/1.0/">
]>
<svg version="1.1" id="Layer_1" xmlns:x="&ns_extend;" xmlns:i="&ns_ai;" xmlns:graph="&ns_graphs;"
	 xmlns="http://www.w3.org/2000/svg" xmlns:xlink="http://www.w3.org/1999/xlink" x="0px" y="0px" viewBox="0 0 256 256"
	 enable-background="new 0 0 256 256" xml:space="preserve">
<metadata>
	<sfw  xmlns="&ns_sfw;">
		<slices></slices>
		<sliceSourceBounds  bottomLeftOrigin="true" height="256" width="256" x="0" y="0"></sliceSourceBounds>
	</sfw>
</metadata>
<g transform="matrix(25.882 0 0 -25.882 30.593 256)">
	<path fill="#231F20" d="M0,0c-0.7,0-1.2,0.5-1.2,1.2v7.5c0,0.7,0.5,1.2,1.2,1.2h7.5c0.7,0,1.2-0.5,1.2-1.2V1.2C8.7,0.5,8.2,0,7.5,0
		L0,0L0,0z"/>
</g>
<g transform="matrix(25.882 0 0 -25.882 30.593 5.1895)">
	<path fill="#FFFFFF" d="M0,0c-0.5,0-1-0.4-1-1v-7.5c0-0.5,0.4-1,1-1h7.5c0.5,0,1,0.4,1,1V-1c0,0.5-0.4,1-1,1L0,0L0,0z"/>
</g>
<g transform="matrix(25.882 0 0 -25.882 101.72 54.656)">
	<path fill="#231F20" d="M0,0c-0.4,0-0.7,0.3-0.7,0.7S-0.4,1.3,0,1.3S0.7,1,0.7,0.7S0.4,0,0,0"/>
</g>
<g transform="matrix(25.882 0 0 -25.882 180.32 89.079)">
	<path fill="#231F20" d="M0,0h-1L-2,0.9L-2.1,1c-0.1,0.1-0.3,0.2-0.5,0.2h-1.2c-0.5,0-0.9-0.4-0.9-0.9v-2c0-0.4,0.5-0.4,0.5,0v2h0.2
		l0-5.4c0-0.2,0.2-0.4,0.4-0.4s0.4,0.2,0.4,0.4V-2h0.2v-3.1c0-0.2,0.2-0.4,0.4-0.4s0.4,0.2,0.4,0.4v5.5l0.8-0.8c0,0,0.1-0.1,0.2-0.1
		H0c0.1,0,0.3,0.1,0.3,0.3S0.1,0,0,0"/>
</g>
<g transform="matrix(25.882 0 0 -25.882 79.375 110.97)">
	<path fill="#231F20" d="M0,0l-1.6-1.6c0,0,0-0.1,0-0.2c0,0,0.1,0,0.2,0l0.4,0.4v-0.4l-0.4-0.4c0,0,0-0.1,0-0.1s0.1,0,0.1,0L-1.1-2
		l0-1c0,0,0-0.1,0.1-0.1C-1-3.1-1-3.1-1-3l0,0.5l0.3-0.3c0,0,0,0,0.1,0s0,0,0,0.1l-0.3,0.3v1.2l1.1,1.1C0.2-0.2,0,0,0,0z"/>
</g>
<g transform="matrix(25.882 0 0 -25.882 230.12 79.373)">
	<path fill="#231F20" d="M0,0c0,0,0,0.1,0,0.1s-0.1,0-0.1,0l-0.4-0.4v0.4c0,0,0,0.1-0.1,0.1s-0.1,0-0.1-0.1v-0.4l-1-1h-0.9l0.9,0.9
		c0.1,0.1,0.1,0.1,0.1,0.1v0.5l0.7,0.6h0.5c0,0,0.1,0,0.1,0.1s0,0.1-0.1,0.1h-0.5l0.5,0.4c0,0,0,0.1,0,0.1s-0.1,0-0.1,0l-0.7-0.6
		v0.8c0,0,0,0.1-0.1,0.1s-0.1,0-0.1-0.1V0.7l-0.4-0.3v0.5c0,0,0,0.1-0.1,0.1s-0.1,0-0.1-0.1v-1.1l-1.8-1.8l0.2-0.2l0.5,0.5h2.2
		c0.1,0,0.1,0,0.1,0.1s0,0.1-0.1,0.1l-0.8,0L-1-1h0.7c0,0,0.1,0,0.1,0.1c0,0,0,0.1-0.1,0.1h-0.6C-0.9-0.8,0,0,0,0z"/>
</g>
</svg>
